<?xml version="1.0" encoding="UTF-8"?>
<svg id="Camada_2" data-name="Camada 2" xmlns="http://www.w3.org/2000/svg" xmlns:xlink="http://www.w3.org/1999/xlink" viewBox="0 0 250 455">
  <defs>
    <style>
      .cls-1 {
        fill: #ff5864;
      }

      .cls-2 {
        fill: url(#Gradiente_sem_nome_14-2);
      }

      .cls-3 {
        fill: url(#Gradiente_sem_nome_14);
      }
    </style>
    <linearGradient id="Gradiente_sem_nome_14" data-name="Gradiente sem nome 14" x1="165.39" y1="56.02" x2="84.32" y2="196.43" gradientUnits="userSpaceOnUse">
      <stop offset="0" stop-color="#fd4731"/>
      <stop offset="1" stop-color="#5000ff"/>
    </linearGradient>
    <linearGradient id="Gradiente_sem_nome_14-2" data-name="Gradiente sem nome 14" x1="177.7" y1="231.14" x2="73.83" y2="411.04" xlink:href="#Gradiente_sem_nome_14"/>
  </defs>
  <g id="Camada_1-2" data-name="Camada 1">
    <g>
      <path class="cls-1" d="M73.65,292.88c3.59,3.33,2.52,12.07-2.45,13.52-2.41.7-30.68.5-32.3-.29-3-1.45-2.66-12.35-.76-14.25,2.45-2.45,32.4-1.85,35.51,1.02Z"/>
      <path class="cls-1" d="M181.64,290.86c4.16-.75,26.78-.8,29.6.92,3.04,1.85,1.57,10.42,1.22,13.89-.71,1.02-1.94.85-3.02.98-3.74.45-29.34.4-31.53-.57-5.36-2.36-4.76-13.7,3.71-15.23Z"/>
      <g>
        <path class="cls-1" d="M248.89,270.16c-.64-6.41-3.8-13.37-10.25-15.73-.92-.34-6.72-1.76-7.24-1.76h-40.5c-.23-1.18.14-1.92.55-2.94,5.86-14.76,21.79-35.32,29.63-51.32,21.85-44.61,32.32-91.31,6.99-137.22C186.89-13.48,81.72-20.39,30.49,47.95c-37.13,49.54-24.34,111.33,4.24,161.43l25.17,43.29H18.41c-.33,0-5.82,1.24-6.52,1.48-6.39,2.18-10.12,8.56-10.98,15,4.88,43.88-15.54,98.16,25.27,128.61,26.74,19.95,60.2,37.78,88.73,55.22,10.38,3.59,19.76.7,29.02-3.98,15.12-7.64,34.31-21.44,48.9-31.07,23.16-15.29,53.19-29.63,56.07-60.87,2.54-27.62-1.85-58.88,0-86.89ZM120.7,53.16c73.3-5.51,93.25,102.13,21.2,122.07-87.96,24.34-110.71-115.34-21.2-122.07ZM113.91,335.59c13.5,15.82,18.71,4.28,26.42-5.09,6.44-7.83,11.12-17.25,17.22-25.6,1.71-2.34,3.21-4.83,4.55-7.41,3.77-7.26,15.27-21.32,18.32-25.85h48l1.55,3.45c-2.98,25.58,4.68,62.82-2.05,86.47-.76,2.67-.68,4.47-2.18,7.31-1.04,1.97-10.98,14.51-12.6,13.34,1.06,1.03,2.2,1.79,4.33.97.53-7.51,1.82-1.34-2.48-2.28-.67,2.48,1.53-.14,2.52.45.89.52.9-3.16.06-2.4-1.14,1.05-6.17,4-8.64,6.09l-36.29,23.68c-2.15.85-1.04,7.29-1.54,4.26l-2.85-.98,3.74,6.09c-2.22-.65,5.02-3.7,2.98-4.3-.27-.08,4.29-7.73,2.13-5.87-2.36,2.03,13.03-.54,3.45-.51l-.89-.85-7.45,5.91c4.46,2.17,2.14-4.33,4.98-6,.69-.41-9.41,4.16-10.77,6.03l-33.63,21.36c-9.95,3.85-13.69.66-21.8-3.97-26.71-15.22-52.18-35.36-78.56-51.39-4.81-4.16-10.2-12.41-11.29-18.7-.35-2.04-1.24-9.18-1.24-10.75v-75.93l1.58-1.38c3.23,1.59,5.76-.05,8.88-.16,11.34-.42,22.89,0,34.2.68,1.58.1,3.34.16,4.87.37M50.91,289.63h18"/>
        <path class="cls-1" d="M216.91,373.55l1.84-.79.65,1.78c2.62-4.44,6.99-6.38,4.97-12.01"/>
      </g>
    </g>
  </g>
</svg>