<?xml version="1.0" encoding="UTF-8"?>
<svg id="Camada_2" data-name="Camada 2" xmlns="http://www.w3.org/2000/svg" xmlns:xlink="http://www.w3.org/1999/xlink" viewBox="0 0 800.99 454.58">
  <defs>
    <style>
      .cls-1 {
        fill: #3D1870;
      }

      .cls-2 {
        fill: url(#Gradiente_sem_nome_14-2);
      }

      .cls-3 {
        fill: url(#Gradiente_sem_nome_14);
      }
    </style>
    <linearGradient id="Gradiente_sem_nome_14" data-name="Gradiente sem nome 14" x1="165.39" y1="56.02" x2="84.32" y2="196.43" gradientUnits="userSpaceOnUse">
      <stop offset="0" stop-color="#fd4731"/>
      <stop offset="1" stop-color="#5000ff"/>
    </linearGradient>
    <linearGradient id="Gradiente_sem_nome_14-2" data-name="Gradiente sem nome 14" x1="177.7" y1="231.14" x2="73.83" y2="411.04" xlink:href="#Gradiente_sem_nome_14"/>
  </defs>
  <g id="Camada_1-2" data-name="Camada 1">
    <g>
      <circle class="cls-3" cx="124.85" cy="126.22" r="81.05"/>
      <path class="cls-2" d="M19.91,265.12c-1.32,36.47-2.64,72.95-3.96,109.42,36.46,22.08,72.93,44.16,109.39,66.24,37.07-24.08,74.14-48.16,111.21-72.24v-103.42H19.91Z"/>
      <path class="cls-1" d="M322.61,153.06l30.31,62.63,30.97-61.46c3.17-3.39,19.55-3.18,24.46-2.41,3.88.61,5.16,2.71,5.58,6.41,2.28,20.04,1.86,42.56,2.99,62.95.7,12.58,2.57,25.38,2.98,37.98.09,2.69.56,9.47-1.22,11.24-1.66,1.65-23.71,3.36-24.55-2.47l-4.22-72.22-29.98,56.45c-1.08.65-2.28.42-3.44.55-3.07.32-8.28.67-10.03-2.08l-28.52-54.91-4.45,71.98c-1.12,6.48-23.87,4.24-25.39,1.77l5.99-115.06c1.45-4.43,24.07-2.95,28.54-1.36Z"/>
      <path class="cls-1" d="M576.91,5.4c1.25-4.34,22.98-6.16,23.98,1.02l-.91,121.93c-6.54,3.9-25.66,5.84-22.08-6.56-3.56.74-5.15,4.23-8.3,6.18s-7.46,3.41-11.2,3.79c-68.51,6.92-65.43-100.37-2-93.89,8.28.85,13.27,5.88,20.51,8.98V5.4ZM551.66,60.12c-29.05,4.03-25.56,54.19,7.66,49.6,15.36-2.12,20.06-19.11,17.48-32.28-2.32-11.81-13.35-18.95-25.14-17.32Z"/>
      <path class="cls-1" d="M315.91,54.86l42.3,1.2c4.22,1.24,3.63,16.31,2.5,20.08-.43,1.45-2.37,2.83-3.75,3.25-8.68,2.63-26.64-.94-36.6.4-1.32.18-4.45,1.28-4.45,2.55v45.96c0,.75-2.43,2.26-3.53,2.47-2.51.48-15.45.49-17.95,0s-3.59-2.45-4.31-4.69l.52-117.93,2.5-2.5,71.82-.3c6.38,1.74,5.4,24.53-.56,24.53h-47l-1.5,1.5v23.48Z"/>
      <path class="cls-1" d="M447.41,183.73c.95.26,3.55,3.73,4.01,4.99,2.61,5.88,15.63,49.66,18,50.95,1.98,1.07,2.43-5.69,3.51-6.47l16.4-47.55c4.08-4.44,18.14-3.29,23.59-1.43l1.04,2.01c-7.17,20.7-14.33,41.46-22.03,61.96-5.46,14.54-13.26,42.7-24.99,51.96-5.93,4.68-23.04,11.37-30.03,7.97-2.94-1.43-2.98-16.55-1.78-20.27,9.25-2.04,22.02-2.67,22.78-14.61l-33.04-86.99c-.04-.83,1-2.52,1.55-2.52h21Z"/>
      <path class="cls-1" d="M418.14,129.55l-.34-88.28c8.33-4.06,25.65-5.26,22.11,8.59,5.59-5.53,8.93-10.77,17.58-11.9,14.5-1.9,29.48,1.52,36.59,15.23,6.35,12.25,6.22,54.4,4.87,69.14-.3,3.26-.73,7.69-4.56,8.43-3.05.59-17.63.8-18.98-1.97-1.88-16.14.8-33.47-.46-49.49-.65-8.25-3.63-16.52-12.77-18.21-33.65-6.23-17.01,48.73-21.77,66.7-2.12,4.41-20.3,3.71-22.27,1.76Z"/>
      <path class="cls-1" d="M306.91,370.55v33.47c0,3.93-19.47,2.75-23,1.5v-106.4c1.69-1.81,4.17-2.22,6.5-2.49,10.54-1.22,36.23-.33,46.3,2.69,32.51,9.77,31.81,60.8-1.59,68.94-8.67,2.11-19.21,1.71-28.21,2.29ZM307.41,316.6l-1.5,1.5v30.97c0,3.72,13.44,2.5,16.05,2.05,12.51-2.14,19.04-14.83,13.15-26.23-1.78-3.44-7.89-8.29-11.7-8.29h-16Z"/>
      <path class="cls-1" d="M549.91,356.56l24.61-28.86c3.44-1.97,20.58-1.68,22.26,1.02,2.66,4.29-11.38,15.46-14.38,18.83-4.32,4.86-8.14,10.42-12.4,15.35,2.98,7.23,30.97,35.44,31.02,40.1,0,.85-.04,1.89-.53,2.58-1.25,1.75-20.97,1.32-23.94-.2-7.14-3.65-18.33-27.61-26.63-32.84v30.47c0,2.93-4.3,3.35-6.46,3.54-3.48.3-14.2,1.13-15.34-2.74l.29-106.2c1.66-3.41,21.5-2.86,21.5.5v58.44Z"/>
      <path class="cls-1" d="M394.66,325.85c32.12-4.1,51.67,19.79,46.79,50.75-5.25,33.33-51.2,42.34-71.53,17.41-19.36-23.74-6.93-64.11,24.73-68.16ZM397.64,346.81c-19.28,3.29-20.23,36.18-.56,41.03,28.8,7.1,32.5-46.48.56-41.03Z"/>
      <path class="cls-1" d="M619.91,372.55c-.57,15.92,18.78,22.92,30.94,14.42,5.67-3.96,3.94-7.64,13.06-3.93,13.83,5.63,5.89,14.28-3.33,19.64-31.85,18.55-66.32-6.29-62.55-42.5,4.86-46.63,71.25-45.86,76.6-1.84.29,2.39,1.33,14.21-2.22,14.21h-52.5ZM652.91,358.56c.92-15.92-20.27-21.88-29.53-10.02-1.25,1.61-5.71,10.02-1.97,10.02h31.5Z"/>
      <path class="cls-1" d="M777.64,389.28c2.1-2.23,1.55-7.17-.77-9.2-4.09-3.59-20.92-5.05-27.65-8.35-6.21-3.04-11.55-9.69-12.32-16.66-4.27-38.8,57.24-35.36,60.95-12.94,1.83,11.09-7.4,7.93-15.22,9.28-4.26-1.2-4.07-9.95-15.23-9.9-8.66.03-13.65,8.75-5.77,12.83,12.21,6.32,31.36,1.58,37.77,20.22,10.78,31.37-36.04,42.76-56.52,26.49-6.95-5.52-10.72-13.07-1.04-18.07,11.46-5.91,9.69,1.71,16.11,6.01,4.32,2.89,16.07,4.14,19.68.29Z"/>
      <path class="cls-1" d="M480.68,325.87c12.7-1.53,26.24,1.54,34.73,11.7,6.62,7.92,6.98,13-3.71,16.29-12.67,3.9-10.46-6.83-21.39-8.2-17.42-2.18-24.7,14.3-21.15,29.13,2.55,10.68,14.64,16.82,24.97,13.47s6.55-13.7,20.14-7.6c9.29,4.17,7.95,7.79,2.14,14.87-12.03,14.68-38.66,16.92-53.54,5.51-27.12-20.81-17.78-70.87,17.8-75.17Z"/>
      <path class="cls-1" d="M709.91,327.59h18.5c3.45,0,2.87,13.44,2,15.98-.27.45-2.72,2-3,2h-16.5c-1.08,9.59-1.9,21.85-1.04,31.51,1.24,13.94,9.7,12.2,21.04,13.45v14.49c0,4.57-20.33,2.92-24.05,2.05-27.89-6.54-16.7-40.84-18.94-61.5-11.51,1.1-14.69-1.94-12.94-13.41,1.22-7.98,8.42-2.61,13.5-5.5,1.68-4.25-1.39-15.44,1.86-18.12,3.52-2.9,19.58-3.05,19.58,2.57v16.48Z"/>
      <path class="cls-1" d="M384.64,39.11c6.01-1.06,18.19-1.56,19.2,6.32-1.15,24.81,1.78,51.3,0,75.91-.13,1.86-.44,6.02-1.47,7.39-2.31,3.05-23.85,4.6-23.41-3.5l.85-83.95c.81-1.06,3.46-1.93,4.83-2.17Z"/>
      <path class="cls-1" d="M389.69.15c20.33-2.51,22.6,27.9,3.6,29.69s-22.93-27.3-3.6-29.69Z"/>
      <path class="cls-1" d="M73.65,292.88c3.59,3.33,2.52,12.07-2.45,13.52-2.41.7-30.68.5-32.3-.29-3-1.45-2.66-12.35-.76-14.25,2.45-2.45,32.4-1.85,35.51,1.02Z"/>
      <path class="cls-1" d="M181.64,290.86c4.16-.75,26.78-.8,29.6.92,3.04,1.85,1.57,10.42,1.22,13.89-.71,1.02-1.94.85-3.02.98-3.74.45-29.34.4-31.53-.57-5.36-2.36-4.76-13.7,3.71-15.23Z"/>
      <g>
        <path class="cls-1" d="M248.89,270.16c-.64-6.41-3.8-13.37-10.25-15.73-.92-.34-6.72-1.76-7.24-1.76h-40.5c-.23-1.18.14-1.92.55-2.94,5.86-14.76,21.79-35.32,29.63-51.32,21.85-44.61,32.32-91.31,6.99-137.22C186.89-13.48,81.72-20.39,30.49,47.95c-37.13,49.54-24.34,111.33,4.24,161.43l25.17,43.29H18.41c-.33,0-5.82,1.24-6.52,1.48-6.39,2.18-10.12,8.56-10.98,15,4.88,43.88-15.54,98.16,25.27,128.61,26.74,19.95,60.2,37.78,88.73,55.22,10.38,3.59,19.76.7,29.02-3.98,15.12-7.64,34.31-21.44,48.9-31.07,23.16-15.29,53.19-29.63,56.07-60.87,2.54-27.62-1.85-58.88,0-86.89ZM120.7,53.16c73.3-5.51,93.25,102.13,21.2,122.07-87.96,24.34-110.71-115.34-21.2-122.07ZM113.91,335.59c13.5,15.82,18.71,4.28,26.42-5.09,6.44-7.83,11.12-17.25,17.22-25.6,1.71-2.34,3.21-4.83,4.55-7.41,3.77-7.26,15.27-21.32,18.32-25.85h48l1.55,3.45c-2.98,25.58,4.68,62.82-2.05,86.47-.76,2.67-.68,4.47-2.18,7.31-1.04,1.97-10.98,14.51-12.6,13.34,1.06,1.03,2.2,1.79,4.33.97.53-7.51,1.82-1.34-2.48-2.28-.67,2.48,1.53-.14,2.52.45.89.52.9-3.16.06-2.4-1.14,1.05-6.17,4-8.64,6.09l-36.29,23.68c-2.15.85-1.04,7.29-1.54,4.26l-2.85-.98,3.74,6.09c-2.22-.65,5.02-3.7,2.98-4.3-.27-.08,4.29-7.73,2.13-5.87-2.36,2.03,13.03-.54,3.45-.51l-.89-.85-7.45,5.91c4.46,2.17,2.14-4.33,4.98-6,.69-.41-9.41,4.16-10.77,6.03l-33.63,21.36c-9.95,3.85-13.69.66-21.8-3.97-26.71-15.22-52.18-35.36-78.56-51.39-4.81-4.16-10.2-12.41-11.29-18.7-.35-2.04-1.24-9.18-1.24-10.75v-75.93l1.58-1.38c3.23,1.59,5.76-.05,8.88-.16,11.34-.42,22.89,0,34.2.68,1.58.1,3.34.16,4.87.37M50.91,289.63h18"/>
        <path class="cls-1" d="M216.91,373.55l1.84-.79.65,1.78c2.62-4.44,6.99-6.38,4.97-12.01"/>
      </g>
    </g>
  </g>
</svg>
